<svg width="159" height="28" viewBox="0 0 159 28" fill="none" xmlns="http://www.w3.org/2000/svg">
<g clip-path="url(#clip0_3975_582)">
<path d="M25.4414 10.6577C25.9125 9.74969 26.6523 9.01676 27.5552 8.56344C28.3991 8.14956 29.3369 7.97649 30.2693 8.06253C30.3859 8.07339 30.4942 8.12877 30.5725 8.21763C30.6509 8.30648 30.6936 8.42226 30.692 8.54184V12.5793C30.6924 12.6463 30.6789 12.7126 30.6525 12.7739C30.626 12.8352 30.5871 12.8901 30.5384 12.9349C30.4897 12.9798 30.4323 13.0136 30.3698 13.0342C30.3074 13.0548 30.2415 13.0616 30.1763 13.0543C28.6459 12.8729 27.5002 13.1623 26.735 13.9179C25.8895 14.7513 25.4668 16.2238 25.4668 18.3354V24.994C25.4668 25.1211 25.4173 25.243 25.3293 25.3329C25.2413 25.4228 25.122 25.4733 24.9975 25.4733H20.6558C20.5321 25.4722 20.4138 25.4212 20.3267 25.3314C20.2396 25.2416 20.1908 25.1204 20.1908 24.994V8.86138C20.1908 8.73501 20.2396 8.61374 20.3267 8.52397C20.4138 8.43421 20.5321 8.38321 20.6558 8.38207H24.9764C25.1008 8.38207 25.2202 8.43257 25.3082 8.52246C25.3962 8.61235 25.4456 8.73426 25.4456 8.86138V10.688L25.4414 10.6577Z" fill="#6260E1"/>
<path d="M40.6942 25.9613C37.9548 25.9613 35.7437 25.1236 34.0443 23.4568C32.3448 21.79 31.5077 19.6266 31.5077 16.958C31.4689 15.7654 31.666 14.577 32.0873 13.464C32.5086 12.3511 33.1455 11.3364 33.9597 10.4807C35.5916 8.77938 37.7223 7.92871 40.3687 7.92871C43.0152 7.92871 45.1923 8.76211 46.7608 10.4332C47.5457 11.2763 48.1583 12.2707 48.5626 13.3584C48.9669 14.4461 49.1549 15.6052 49.1155 16.768C49.117 17.2167 49.093 17.6651 49.0437 18.1109C49.0331 18.2293 48.9794 18.3393 48.8934 18.4192C48.8073 18.4991 48.695 18.5432 48.5786 18.5427H36.6104C37.0134 20.506 38.4071 21.4877 40.7915 21.4877C42.2626 21.4877 43.328 21.0084 43.9748 20.0325C44.0317 19.9514 44.1121 19.8907 44.2047 19.8589C44.2973 19.8271 44.3973 19.8259 44.4906 19.8554L48.325 20.9997C48.3929 21.0198 48.4556 21.0553 48.5082 21.1035C48.5609 21.1518 48.6022 21.2116 48.629 21.2785C48.6559 21.3453 48.6676 21.4175 48.6632 21.4896C48.6589 21.5618 48.6386 21.632 48.604 21.695C47.9368 22.8279 47.017 23.7837 45.9195 24.4845C44.3676 25.4986 42.5526 26.0117 40.7111 25.957L40.6942 25.9613ZM43.996 15.3214C43.9543 14.9182 43.8336 14.5276 43.6412 14.173C43.4487 13.8184 43.1884 13.507 42.8756 13.2573C42.158 12.6696 41.2584 12.3633 40.3391 12.3937C39.4192 12.3586 38.518 12.6655 37.8026 13.2573C37.1839 13.7728 36.7693 14.5001 36.6358 15.3041L43.996 15.3214Z" fill="#6260E1"/>
<path d="M59.2195 25.9439C58.1329 25.9576 57.0561 25.7335 56.0615 25.2866C55.0668 24.8397 54.1774 24.1804 53.4531 23.353C51.9321 21.5705 51.0941 19.2858 51.0941 16.9212C51.0941 14.5565 51.9321 12.2719 53.4531 10.4893C54.1774 9.66192 55.0668 9.00261 56.0615 8.55571C57.0561 8.10881 58.1329 7.88467 59.2195 7.89838C60.688 7.85393 62.1269 8.32656 63.2948 9.23701C63.3636 9.29096 63.4458 9.3242 63.5321 9.33296C63.6184 9.34172 63.7054 9.32565 63.7832 9.28657C63.8611 9.24749 63.9266 9.18697 63.9726 9.11182C64.0185 9.03668 64.0429 8.94991 64.0431 8.86132C64.0431 8.7342 64.0926 8.61229 64.1806 8.5224C64.2686 8.43251 64.3879 8.38201 64.5124 8.38201H68.8498C68.9736 8.38315 69.0918 8.43415 69.1789 8.52392C69.266 8.61368 69.3149 8.73495 69.3149 8.86132V24.9896C69.3149 25.116 69.266 25.2373 69.1789 25.327C69.0918 25.4168 68.9736 25.4678 68.8498 25.4689H64.5124C64.3879 25.4689 64.2686 25.4184 64.1806 25.3285C64.0926 25.2387 64.0431 25.1167 64.0431 24.9896C64.0437 24.9007 64.0199 24.8133 63.9742 24.7375C63.9286 24.6618 63.8631 24.6006 63.7851 24.561C63.7071 24.5214 63.6198 24.505 63.5331 24.5136C63.4465 24.5222 63.3639 24.5554 63.2948 24.6096C62.133 25.5206 60.7007 25.9976 59.2364 25.9612L59.2195 25.9439ZM60.1665 21.194C60.7024 21.2134 61.2363 21.1169 61.7332 20.9108C62.2301 20.7046 62.6787 20.3935 63.0496 19.9978C63.4299 19.5849 63.7262 19.099 63.9214 18.5683C64.1166 18.0376 64.2068 17.4726 64.1868 16.906C64.2083 16.3439 64.1187 15.7831 63.9233 15.257C63.7279 14.731 63.4308 14.2506 63.0496 13.8445C62.6775 13.4565 62.2306 13.1515 61.7373 12.9486C61.244 12.7457 60.7149 12.6493 60.1834 12.6656C59.6606 12.649 59.1402 12.7454 58.6564 12.9486C58.1727 13.1517 57.7364 13.457 57.3763 13.8445C57.0034 14.255 56.7138 14.7369 56.5244 15.2624C56.3351 15.7879 56.2495 16.3466 56.2729 16.906C56.2486 17.4702 56.3336 18.0337 56.5229 18.5642C56.7123 19.0948 57.0023 19.582 57.3763 19.9978C57.7364 20.3853 58.1727 20.6906 58.6564 20.8937C59.1402 21.0969 59.6606 21.1933 60.1834 21.1767L60.1665 21.194Z" fill="#6260E1"/>
<path d="M84.0902 24.4802C84.1247 24.5976 84.1141 24.7241 84.0608 24.8339C84.0074 24.9437 83.9152 25.0287 83.8028 25.0718C82.621 25.5111 81.3739 25.739 80.1164 25.7454C78.1463 25.7454 76.6709 25.1754 75.6774 24.0181C74.6839 22.8609 74.1851 21.302 74.1851 19.2898V13.5423C74.1851 13.4159 74.1362 13.2947 74.0492 13.2049C73.9621 13.1151 73.8438 13.0641 73.7201 13.063H72.0586C71.9342 13.063 71.8148 13.0125 71.7268 12.9226C71.6388 12.8327 71.5894 12.7108 71.5894 12.5837V8.86142C71.5894 8.7343 71.6388 8.61239 71.7268 8.5225C71.8148 8.43261 71.9342 8.38211 72.0586 8.38211H73.7201C73.8438 8.38097 73.9621 8.32997 74.0492 8.24021C74.1362 8.15044 74.1851 8.02917 74.1851 7.9028V3.48965C74.1862 3.36328 74.2361 3.24246 74.324 3.1535C74.4119 3.06455 74.5306 3.01464 74.6543 3.01465H78.996C79.1198 3.01464 79.2385 3.06455 79.3264 3.1535C79.4143 3.24246 79.4642 3.36328 79.4653 3.48965V7.9028C79.4653 8.02917 79.5142 8.15044 79.6013 8.24021C79.6883 8.32997 79.8066 8.38097 79.9303 8.38211H83.4984C83.6229 8.38211 83.7422 8.43261 83.8302 8.5225C83.9182 8.61239 83.9677 8.7343 83.9677 8.86142V12.5837C83.9677 12.6466 83.9555 12.7089 83.9319 12.7671C83.9083 12.8252 83.8738 12.8781 83.8302 12.9226C83.7866 12.9671 83.7349 13.0024 83.678 13.0265C83.621 13.0506 83.56 13.063 83.4984 13.063H79.9303C79.8066 13.0641 79.6883 13.1151 79.6013 13.2049C79.5142 13.2947 79.4653 13.4159 79.4653 13.5423V19.2984C79.4653 20.4945 80.0403 21.0818 81.1944 21.0818C81.6441 21.0843 82.0907 21.0053 82.5134 20.8486C82.5732 20.8257 82.637 20.8155 82.7008 20.8186C82.7647 20.8218 82.8272 20.8382 82.8846 20.8669C82.942 20.8956 82.993 20.936 83.0346 20.9856C83.0762 21.0351 83.1074 21.0929 83.1264 21.1552L84.0902 24.4802Z" fill="#6260E1"/>
<path d="M14.0397 24.6617C13.8203 24.5702 13.582 24.536 13.3464 24.5623C12.7799 24.5469 12.2133 24.5903 11.6554 24.6919C11.0444 24.799 10.4402 24.9432 9.84596 25.1237C9.33001 25.2574 8.82862 25.444 8.34942 25.6807C8.00698 25.8232 7.50389 26.091 7.83364 26.4019C8.03855 26.5297 8.27419 26.597 8.5143 26.5962C8.79562 26.6206 9.07848 26.6206 9.35981 26.5962C9.91596 26.5538 10.4693 26.4788 11.017 26.3716C11.589 26.2643 12.1538 26.1201 12.708 25.9398C12.9822 25.8563 13.2506 25.7538 13.5112 25.6332C13.7578 25.5522 13.9773 25.4027 14.1454 25.2014C14.1738 25.1591 14.1936 25.1114 14.2037 25.0612C14.2137 25.0109 14.2138 24.9591 14.204 24.9088C14.1941 24.8585 14.1745 24.8107 14.1463 24.7682C14.1181 24.7258 14.0818 24.6896 14.0397 24.6617ZM13.6804 25.1453C13.4584 25.2678 13.2264 25.3704 12.987 25.4519C12.5262 25.616 12.0654 25.7628 11.5962 25.8837C11.1256 26.0075 10.6485 26.1041 10.1673 26.173C9.7117 26.2479 9.25035 26.2797 8.78907 26.268C8.65802 26.268 8.52697 26.268 8.39591 26.2248L8.25216 26.1989L8.14227 26.1601H8.16763L8.31559 26.0694C8.43819 26.0003 8.55655 25.9355 8.67915 25.8751C8.91589 25.7585 9.15687 25.6548 9.40207 25.5555L9.49507 25.5253C9.91782 25.3871 10.3829 25.2619 10.8352 25.1582C11.7421 24.943 12.6759 24.8702 13.6043 24.9423C13.6339 24.9423 13.8917 24.9423 13.896 25.0028C13.9002 25.0632 13.6973 25.1323 13.6804 25.1453Z" fill="#5DF3A8"/>
<path d="M7.94783 26.1084L8.14651 26.1343H8.18034L8.31562 26.0523C8.43822 25.9832 8.55659 25.9184 8.67919 25.8579C8.91593 25.7413 9.15691 25.6377 9.40211 25.5384L9.4951 25.5082C9.91786 25.37 10.3829 25.2448 10.8353 25.1411C11.7422 24.9259 12.6759 24.8531 13.6043 24.9252C13.6838 24.9261 13.7631 24.9347 13.841 24.9511L13.9002 24.9252H13.9256L14.0313 24.8777L14.1623 24.8173C14.1327 24.7569 14.0873 24.7061 14.0313 24.6704C13.8119 24.5789 13.5736 24.5448 13.338 24.5711C12.7714 24.5557 12.2049 24.5991 11.6469 24.7007C11.0359 24.8078 10.4317 24.952 9.83753 25.1325C9.32158 25.2662 8.82019 25.4528 8.34099 25.6895C8.10548 25.765 7.89583 25.9072 7.73645 26.0998C7.80702 26.0969 7.87771 26.0998 7.94783 26.1084Z" fill="#318864"/>
<path d="M3.84706 3.90438L1.76288 2.35417C1.05688 1.83599 0 2.28508 0 3.10553V6.19732C0 7.01777 1.05688 7.47118 1.76288 6.94868L3.84706 5.40278C3.96828 5.32091 4.06776 5.20963 4.13657 5.07889C4.20538 4.94815 4.24138 4.80202 4.24138 4.65358C4.24138 4.50515 4.20538 4.35903 4.13657 4.22828C4.06776 4.09754 3.96828 3.98626 3.84706 3.90438Z" fill="url(#paint0_linear_3975_582)"/>
<path d="M16.2293 3.90438L18.3135 2.35417C19.0195 1.83599 20.0764 2.28508 20.0764 3.10553V6.19732C20.0764 7.01777 19.0195 7.47118 18.3135 6.94868L16.2293 5.40278C16.1081 5.32091 16.0086 5.20963 15.9398 5.07889C15.871 4.94815 15.835 4.80202 15.835 4.65358C15.835 4.50515 15.871 4.35903 15.9398 4.22828C16.0086 4.09754 16.1081 3.98626 16.2293 3.90438Z" fill="url(#paint1_linear_3975_582)"/>
<path d="M13.8915 2.15137H6.19733C5.56298 2.17824 4.96337 2.45454 4.52383 2.92251C4.08429 3.39047 3.83887 4.01387 3.83887 4.66237C3.83887 5.31087 4.08429 5.93427 4.52383 6.40223C4.96337 6.8702 5.56298 7.1465 6.19733 7.17338H7.31341V16.1379C7.29896 16.5126 7.35874 16.8864 7.48916 17.2369C7.61957 17.5874 7.81792 17.9075 8.07236 18.1778C8.32679 18.4481 8.63206 18.6632 8.96983 18.8101C9.30761 18.957 9.67095 19.0327 10.0381 19.0327C10.4052 19.0327 10.7685 18.957 11.1063 18.8101C11.4441 18.6632 11.7493 18.4481 12.0038 18.1778C12.2582 17.9075 12.4566 17.5874 12.587 17.2369C12.7174 16.8864 12.7772 16.5126 12.7627 16.1379V7.16474H13.8915C14.5119 7.11916 15.0923 6.83526 15.5161 6.37019C15.9398 5.90511 16.1754 5.29337 16.1754 4.65805C16.1754 4.02273 15.9398 3.41099 15.5161 2.94592C15.0923 2.48084 14.5119 2.19695 13.8915 2.15137Z" fill="#6260E1"/>
<path d="M10.0405 25.4475C11.5442 25.4475 12.7631 24.2025 12.7631 22.6666C12.7631 21.1308 11.5442 19.8857 10.0405 19.8857C8.53692 19.8857 7.31799 21.1308 7.31799 22.6666C7.31799 24.2025 8.53692 25.4475 10.0405 25.4475Z" fill="#6260E1"/>
<path d="M17.6502 20.1146C17.4654 20.0576 17.2724 20.0327 17.0795 20.0412C16.8597 20.0412 16.6567 20.0412 16.4073 20.0412C15.9846 20.0757 15.5195 20.1232 15.0756 20.175C14.6911 20.2142 14.3087 20.2733 13.93 20.3521C13.744 20.3909 13.5537 20.4341 13.3592 20.4859C13.1648 20.5377 12.9365 20.6284 12.6955 20.6975C12.6152 20.7191 12.5898 20.8271 12.6659 20.8184C12.9788 20.7752 13.2662 20.7752 13.5537 20.745L14.4288 20.663C15.0588 20.6106 15.6914 20.5991 16.3228 20.6284C16.5511 20.6284 16.7709 20.663 16.995 20.6846C16.5192 20.9168 16.0292 21.1173 15.528 21.2848C12.9676 22.1579 10.3319 22.7811 7.65628 23.1459C6.89955 23.2539 6.13435 23.3402 5.37339 23.405L4.25734 23.4827H4.12629L4.75196 23.1675C5.03098 23.0379 5.31845 22.9041 5.62283 22.7702C5.92722 22.6364 6.28233 22.442 6.67549 22.2736C6.71354 22.2736 6.70931 22.2132 6.67549 22.2175C6.25273 22.3039 5.88918 22.3384 5.52561 22.4248C5.16204 22.5111 4.83652 22.5932 4.52368 22.6925C4.22156 22.7903 3.92514 22.9057 3.63588 23.0379C3.352 23.1335 3.0912 23.2896 2.87069 23.4957C2.80028 23.5301 2.73368 23.572 2.67201 23.6209C2.64938 23.6438 2.63142 23.671 2.61916 23.701C2.60691 23.7311 2.60059 23.7633 2.60059 23.7958C2.60059 23.8283 2.60691 23.8605 2.61916 23.8905C2.63142 23.9205 2.64938 23.9478 2.67201 23.9707C2.95471 24.1719 3.29643 24.2679 3.64011 24.2427C4.0375 24.2686 4.43066 24.2729 4.82805 24.2427C5.63749 24.212 6.44398 24.1254 7.24199 23.9836C8.51026 23.7677 9.77852 23.5 11.013 23.1804C12.2474 22.9386 13.4776 22.658 14.6909 22.3168C15.4307 22.1372 16.1536 21.8916 16.8512 21.5827C17.1868 21.4581 17.5019 21.2819 17.7855 21.0602C17.8621 21.0015 17.9218 20.9228 17.9583 20.8324C17.9948 20.742 18.0068 20.6431 17.9929 20.5463C17.9791 20.4496 17.9399 20.3584 17.8796 20.2824C17.8193 20.2064 17.7401 20.1484 17.6502 20.1146Z" fill="#5DF3A8"/>
<path d="M3.02689 23.5218C3.4493 23.5464 3.87274 23.5464 4.29515 23.5218C4.59108 23.5218 4.88279 23.47 5.17872 23.4355L4.27825 23.4959H4.1472L4.77287 23.1807C5.05189 23.0511 5.33936 22.9173 5.64374 22.7834C5.94813 22.6495 6.30324 22.4552 6.6964 22.2868C6.73445 22.2868 6.73022 22.2264 6.6964 22.2307C6.27364 22.3171 5.91009 22.3516 5.54652 22.438C5.18295 22.5243 4.85743 22.6064 4.54459 22.7057C4.24247 22.8035 3.94605 22.9188 3.65679 23.0511C3.37291 23.1467 3.11211 23.3027 2.8916 23.5089H3.04381L3.02689 23.5218Z" fill="#318864"/>
<path d="M16.9397 20.6932L17.5823 20.4816L17.819 20.3952C17.8571 20.3748 17.8939 20.3517 17.9289 20.3262C17.8582 20.2292 17.7612 20.1557 17.6499 20.1146C17.4651 20.0576 17.2721 20.0327 17.0792 20.0412C16.8594 20.0412 16.6565 20.0412 16.407 20.0412C15.9843 20.0757 15.5192 20.1232 15.0753 20.175C14.6908 20.2142 14.3084 20.2733 13.9297 20.3521C13.7437 20.3909 13.5534 20.4341 13.359 20.4859C13.1645 20.5377 12.9362 20.6284 12.6952 20.6975C12.6149 20.7191 12.5895 20.8271 12.6656 20.8184C12.9785 20.7752 13.266 20.7752 13.5534 20.745L14.4285 20.663C15.0585 20.6106 15.6911 20.5991 16.3225 20.6284C16.5339 20.6543 16.7368 20.6716 16.9397 20.6932Z" fill="#318864"/>
<path d="M12.4326 27.4729C12.3523 27.2916 12.1157 27.2743 11.9466 27.2656C11.7679 27.2444 11.5869 27.2727 11.4226 27.3477C11.3341 27.3709 11.2488 27.4058 11.1691 27.4513C11.0085 27.5334 10.7465 27.6456 10.7042 27.8356C10.6936 27.8751 10.6912 27.9164 10.6972 27.9569C10.7031 27.9974 10.7173 28.0362 10.7388 28.0708C10.7603 28.1054 10.7886 28.1349 10.8219 28.1577C10.8553 28.1804 10.8929 28.1957 10.9324 28.2027C11.1372 28.236 11.3468 28.2213 11.5452 28.1595C11.7679 28.1037 11.9825 28.018 12.1833 27.9047C12.3396 27.814 12.5213 27.6759 12.4326 27.4729ZM11.9297 27.6888C11.8069 27.7525 11.6781 27.8032 11.5452 27.84C11.4234 27.8738 11.2989 27.8969 11.1733 27.909C11.1189 27.9201 11.0629 27.9201 11.0085 27.909C10.9535 27.909 10.9704 27.909 11.0085 27.8615C11.1079 27.7614 11.2256 27.6821 11.355 27.6284L11.4902 27.5679C11.5662 27.5722 11.6424 27.5722 11.7184 27.5679H11.8959C11.9509 27.5679 12.0311 27.5938 12.0945 27.5938C12.0369 27.6203 11.9817 27.6521 11.9297 27.6888Z" fill="#5DF3A8"/>
<path d="M10.8817 27.8268H11.038C11.1341 27.7457 11.2408 27.6789 11.355 27.6281L11.4902 27.5677C11.5662 27.572 11.6424 27.572 11.7184 27.5677H11.8959H11.9593L12.2044 27.4554L12.3692 27.3647C12.244 27.2815 12.0957 27.2421 11.9466 27.2525C11.7679 27.2312 11.5869 27.2596 11.4226 27.3345C11.3341 27.3577 11.2488 27.3926 11.169 27.4381C10.9996 27.5069 10.853 27.6238 10.7465 27.775C10.7902 27.7957 10.8354 27.8131 10.8817 27.8268Z" fill="#318864"/>
<path d="M88 14.368C88 12.1493 88.48 10.176 89.44 8.448C90.4 6.69867 91.7333 5.344 93.44 4.384C95.168 3.40267 97.12 2.912 99.296 2.912C101.963 2.912 104.245 3.616 106.144 5.024C108.043 6.432 109.312 8.352 109.952 10.784H103.936C103.488 9.84534 102.848 9.13067 102.016 8.64C101.205 8.14933 100.277 7.904 99.232 7.904C97.5467 7.904 96.1813 8.49067 95.136 9.664C94.0907 10.8373 93.568 12.4053 93.568 14.368C93.568 16.3307 94.0907 17.8987 95.136 19.072C96.1813 20.2453 97.5467 20.832 99.232 20.832C100.277 20.832 101.205 20.5867 102.016 20.096C102.848 19.6053 103.488 18.8907 103.936 17.952H109.952C109.312 20.384 108.043 22.304 106.144 23.712C104.245 25.0987 101.963 25.792 99.296 25.792C97.12 25.792 95.168 25.312 93.44 24.352C91.7333 23.3707 90.4 22.016 89.44 20.288C88.48 18.56 88 16.5867 88 14.368Z" fill="#EA81B6"/>
<path d="M120.791 25.888C119.042 25.888 117.463 25.5147 116.055 24.768C114.668 24.0213 113.57 22.9547 112.759 21.568C111.97 20.1813 111.575 18.56 111.575 16.704C111.575 14.8693 111.98 13.2587 112.791 11.872C113.602 10.464 114.711 9.38667 116.119 8.64C117.527 7.89333 119.106 7.52 120.855 7.52C122.604 7.52 124.183 7.89333 125.591 8.64C126.999 9.38667 128.108 10.464 128.919 11.872C129.73 13.2587 130.135 14.8693 130.135 16.704C130.135 18.5387 129.719 20.16 128.887 21.568C128.076 22.9547 126.956 24.0213 125.527 24.768C124.119 25.5147 122.54 25.888 120.791 25.888ZM120.791 21.152C121.836 21.152 122.722 20.768 123.447 20C124.194 19.232 124.567 18.1333 124.567 16.704C124.567 15.2747 124.204 14.176 123.479 13.408C122.775 12.64 121.9 12.256 120.855 12.256C119.788 12.256 118.903 12.64 118.199 13.408C117.495 14.1547 117.143 15.2533 117.143 16.704C117.143 18.1333 117.484 19.232 118.167 20C118.871 20.768 119.746 21.152 120.791 21.152Z" fill="#EA81B6"/>
<path d="M135.15 5.92C134.19 5.92 133.401 5.64267 132.782 5.088C132.185 4.512 131.886 3.808 131.886 2.976C131.886 2.12267 132.185 1.41867 132.782 0.864C133.401 0.288 134.19 0 135.15 0C136.089 0 136.857 0.288 137.454 0.864C138.073 1.41867 138.382 2.12267 138.382 2.976C138.382 3.808 138.073 4.512 137.454 5.088C136.857 5.64267 136.089 5.92 135.15 5.92ZM137.87 7.776V25.632H132.398V7.776H137.87Z" fill="#EA81B6"/>
<path d="M152.076 7.584C154.166 7.584 155.83 8.26667 157.068 9.632C158.326 10.976 158.956 12.832 158.956 15.2V25.632H153.516V15.936C153.516 14.7413 153.206 13.8133 152.588 13.152C151.969 12.4907 151.137 12.16 150.092 12.16C149.046 12.16 148.214 12.4907 147.596 13.152C146.977 13.8133 146.668 14.7413 146.668 15.936V25.632H141.196V7.776H146.668V10.144C147.222 9.35467 147.969 8.736 148.908 8.288C149.846 7.81867 150.902 7.584 152.076 7.584Z" fill="#EA81B6"/>
</g>
<defs>
<linearGradient id="paint0_linear_3975_582" x1="0" y1="4.65332" x2="4.24022" y2="4.65332" gradientUnits="userSpaceOnUse">
<stop stop-color="#5DF3A8"/>
<stop offset="1" stop-color="#318864"/>
</linearGradient>
<linearGradient id="paint1_linear_3975_582" x1="15.835" y1="4.65332" x2="20.0752" y2="4.65332" gradientUnits="userSpaceOnUse">
<stop stop-color="#5DF3A8"/>
<stop offset="1" stop-color="#318864"/>
</linearGradient>
<clipPath id="clip0_3975_582">
<rect width="159" height="28" fill="white"/>
</clipPath>
</defs>
</svg>
